HIERARCHY
ROOT Hips
{
  OFFSET -145.157 17.1761 53.2806
  CHANNELS 6 Xposition Yposition Zposition Zrotation Xrotation Yrotation
  JOINT ToSpine
  {
    OFFSET -2.69724 7.43032 -0.144315
    CHANNELS 3 Zrotation Xrotation Yrotation
    JOINT Spine
    {
      OFFSET -0.0310711 10.7595 1.96963
      CHANNELS 3 Zrotation Xrotation Yrotation
      JOINT Spine1
      {
        OFFSET 19.9056 3.91189 0.764692
        CHANNELS 3 Zrotation Xrotation Yrotation
        JOINT Neck
        {
          OFFSET 25.9749 7.03908 -0.130764
          CHANNELS 3 Zrotation Xrotation Yrotation
          JOINT Head
          {
            OFFSET 9.52751 0.295786 -0.907742
            CHANNELS 3 Zrotation Xrotation Yrotation
            End Site
            {
              OFFSET 16.4037 0.713936 2.7358
            }
          }
        }
        JOINT LeftShoulder
        {
          OFFSET 17.7449 4.33886 11.7777
          CHANNELS 3 Zrotation Xrotation Yrotation
          JOINT LeftArm
          {
            OFFSET 0.911315 1.27913 9.80584
            CHANNELS 3 Zrotation Xrotation Yrotation
            JOINT LeftForeArm
            {
              OFFSET 28.6126 1.18197 -3.53199
              CHANNELS 3 Zrotation Xrotation Yrotation
              JOINT LeftHand
              {
                OFFSET 27.5088 0.0218783 0.327423
                CHANNELS 3 Zrotation Xrotation Yrotation
                End Site
                {
                  OFFSET 18.6038 -0.000155887 0.382096
                }
              }
            }
          }
        }
        JOINT RightShoulder
        {
          OFFSET 17.1009 2.89543 -12.2328
          CHANNELS 3 Zrotation Xrotation Yrotation
          JOINT RightArm
          {
            OFFSET 1.4228 0.178766 -10.211
            CHANNELS 3 Zrotation Xrotation Yrotation
            JOINT RightForeArm
            {
              OFFSET 28.733 1.87905 2.64907
              CHANNELS 3 Zrotation Xrotation Yrotation
              JOINT RightHand
              {
                OFFSET 27.4588 0.290562 -0.101845
                CHANNELS 3 Zrotation Xrotation Yrotation
                End Site
                {
                  OFFSET 17.8396 -0.255518 -0.000602873
                }
              }
            }
          }
        }
      }
    }
  }
  JOINT LeftUpLeg
  {
    OFFSET -5.61296 -2.22332 -10.2353
    CHANNELS 3 Zrotation Xrotation Yrotation
    JOINT LeftLeg
    {
      OFFSET 2.56703 -44.7417 -7.93097
      CHANNELS 3 Zrotation Xrotation Yrotation
      JOINT LeftFoot
      {
        OFFSET 3.16933 -46.5642 -3.96578
        CHANNELS 3 Zrotation Xrotation Yrotation
        JOINT LeftToeBase
        {
          OFFSET 0.346054 -6.02161 12.8035
          CHANNELS 3 Zrotation Xrotation Yrotation
          End Site
          {
            OFFSET 0.134235 -1.35082 5.13018
          }
        }
      }
    }
  }
  JOINT RightUpLeg
  {
    OFFSET -5.7928 -1.72406 10.6446
    CHANNELS 3 Zrotation Xrotation Yrotation
    JOINT RightLeg
    {
      OFFSET -2.57161 -44.7178 -7.85259
      CHANNELS 3 Zrotation Xrotation Yrotation
      JOINT RightFoot
      {
        OFFSET -3.10148 -46.5936 -4.03391
        CHANNELS 3 Zrotation Xrotation Yrotation
        JOINT RightToeBase
        {
          OFFSET -0.0828122 -6.13587 12.8035
          CHANNELS 3 Zrotation Xrotation Yrotation
          End Site
          {
            OFFSET -0.131328 -1.35082 5.13018
          }
        }
      }
    }
  }
}
MOTION
Frames:	8
Frame Time:	0.0333333
-145.164 17.162 53.2844 11.2466 -9.87332 -179.535 -70.1915 0 88.8779 101.665 71.1375 -19.158 -5.69501 19.5749 8.8259 -174.127 26.626 -168.138 -178.081 68.2394 -145.019 -1.08748 6.76699 4.8102 -135.28 34.3577 -130.737 26.9132 -4.97693 -100.997 -6.51206 -0.333111 8.05806 -2.61118 -12.458 -16.1263 -143.01 -14.4166 104.324 9.55641 1.78494 114.916 10.5808 -1.22372 -14.3471 -55.2788 5.09513 74.8252 -1.15886 34.6373 0.454372 -0.744333 -7.94623 -0.649522 -31.1884 -45.0345 -26.602 -59.2099 -15.0045 86.4872 2.1707 40.0313 6.16736 -7.91624 -14.6827 1.16951 -13.9546 -49.1036 -10.8517 
-145.187 17.162 53.3082 11.1152 -9.7657 -179.557 -70.1915 0 88.8779 102.413 71.1115 -19.8202 -5.86392 19.6236 8.8455 -174.081 26.665 -168.09 -177.781 68.3123 -145.746 -1.06866 6.61805 4.76908 -135.244 34.3124 -130.562 26.9975 -4.93748 -100.872 -6.26588 -0.313038 7.93745 -2.60057 -12.3715 -16.2239 -142.958 -14.3721 104.202 9.49828 1.76007 114.945 10.5407 -1.21565 -14.3129 -55.5024 5.14041 74.8619 -1.14056 34.5207 0.564255 -0.908127 -8.10627 -0.654174 -30.1498 -43.6806 -26.7903 -59.2351 -15.081 86.3556 2.20232 40.2146 6.31372 -7.49102 -14.5033 1.1717 -13.5076 -49.135 -9.59902 
-145.19 17.1651 53.3388 11.049 -9.55315 -179.573 -70.1915 0 88.8779 103.057 71.1855 -20.326 -6.01991 19.7647 8.90995 -174.051 26.6787 -168.068 -177.369 68.367 -146.566 -1.01644 4.49602 6.45725 -138.666 32.8713 -126.488 25.1807 -4.60374 -101.112 -6.45026 -0.332292 8.10739 -2.60377 -12.4105 -16.1655 -142.78 -14.1824 104.341 9.94025 1.9611 114.875 10.5308 -1.23167 -14.4986 -55.6987 5.2485 74.996 -1.12303 34.3859 0.641349 -1.17109 -8.0973 -0.640569 -29.5162 -42.9389 -26.746 -59.0577 -15.0354 86.4967 2.22421 40.5558 6.22409 -7.09578 -14.5337 1.17415 -13.8789 -49.5708 -10.1711 
-145.179 17.1648 53.328 11.0972 -9.37208 -179.582 -70.1915 0 88.8779 103.405 71.3119 -20.5626 -6.17596 19.8989 8.95087 -174.205 26.6612 -168.116 -176.353 68.4522 -148.172 -1.0176 4.60873 6.32252 -138.863 33.1081 -126.553 25.3227 -4.52582 -100.859 -6.80297 -0.341043 7.92483 -2.66913 -12.6194 -16.2946 -142.328 -14.3251 104.579 11.7803 2.79996 114.658 11.1009 -1.3588 -15.1109 -55.696 5.43871 75.3881 -1.16521 34.2739 0.210521 -0.718418 -7.74818 -0.635025 -30.5853 -44.4366 -26.3853 -59.0053 -14.9152 86.6389 2.19936 40.4229 6.11021 -7.36358 -14.4392 1.17175 -13.8888 -49.2925 -10.4822 
-145.192 17.1516 53.3552 11.1247 -9.14793 -179.612 -70.1915 0 88.8779 103.647 71.4092 -20.5706 -6.30724 20.0478 8.8718 -173.991 26.6392 -167.89 -176.25 68.4387 -148.537 -1.14014 5.71149 6.12449 -137.939 34.7912 -127.41 25.9748 -4.5463 -100.561 -7.36416 -0.335718 7.32894 -2.71356 -12.719 -16.4734 -142.158 -14.3531 104.621 11.4247 2.63124 114.654 11.048 -1.33945 -14.9733 -55.7795 5.3811 75.2135 -1.12416 34.2629 0.590919 -0.783506 -8.07948 -0.658259 -29.9264 -43.5103 -26.618 -58.8934 -14.8728 86.7402 2.18193 40.4493 5.92402 -7.36725 -14.6245 1.17316 -13.2046 -48.753 -9.14193 
-145.226 17.2218 53.3476 10.8719 -8.8482 -179.898 -70.1915 0 88.8779 105.336 71.4468 -22.4518 -6.79148 20.1983 9.07661 -173.569 26.5926 -167.473 -176.684 68.3547 -148.265 -1.17072 6.09377 5.98494 -137.883 35.4468 -127.288 26.5017 -4.52758 -100.256 -7.59855 -0.337633 7.18526 -2.76893 -12.663 -17.0977 -141.979 -14.3678 104.147 11.1729 2.52189 114.717 11.2632 -1.36375 -14.9357 -56.1415 5.37517 75.6461 -1.12783 34.0937 0.48385 -0.725512 -7.92053 -0.648685 -30.0148 -43.4589 -26.8899 -58.8439 -14.9836 87.0523 2.21031 40.6822 6.01707 -7.33624 -14.3579 1.17131 -13.43 -48.5943 -9.92726 
-145.237 17.2934 53.3546 10.3674 -8.42707 179.594 -70.1915 0 88.8779 107.861 71.4708 -25.3907 -7.3335 20.4689 9.31492 -173.162 26.6981 -167.643 -175.553 68.4532 -149.181 -1.33047 6.86745 6.35673 -137.604 37.1153 -127.133 28.0279 -4.79655 -100.084 -7.88181 -0.290483 6.2684 -2.83748 -12.8969 -17.1804 -141.785 -14.6898 104.379 11.3331 2.59105 114.675 11.3231 -1.37908 -15.0158 -56.8115 5.23083 76.1741 -1.11179 33.9977 0.586992 -0.948441 -8.12593 -0.654195 -28.9276 -42.1794 -26.8314 -58.9738 -15.2021 87.5902 2.24211 40.9513 6.1054 -7.39711 -14.2236 1.17001 -13.8836 -48.6927 -11.0786 
-145.215 17.2677 53.4122 10.3437 -8.3634 179.409 -70.1915 0 88.8779 108.173 71.4914 -25.7538 -7.55365 20.5081 9.40747 -172.884 26.7049 -167.281 -176.076 68.4219 -148.426 -1.28421 6.88112 6.03832 -137.966 37.3219 -126.748 29.4354 -5.14782 -100.124 -8.42255 -0.253955 5.4434 -2.89089 -13.0176 -17.3788 -141.506 -14.7275 104.597 11.3494 2.59556 114.653 11.2844 -1.38271 -15.1071 -57.0028 4.92408 75.9954 -1.08796 33.8573 0.737888 -0.530845 -7.77629 -0.647932 -29.8903 -43.6257 -26.3268 -58.8427 -15.4413 87.5862 2.24046 41.1372 5.92764 -7.37047 -14.4022 1.17154 -14.4012 -49.9242 -11.2062 
